<svg width="30" height="30" viewBox="0 0 30 30" fill="none" xmlns="http://www.w3.org/2000/svg">
<g id="arrow">
<path id="Vector" d="M28.6712 15.3647C28.6811 15.3492 28.6896 15.3329 28.6965 15.3159C28.7086 15.2953 28.7195 15.274 28.7293 15.2522C28.7387 15.2306 28.7443 15.2081 28.75 15.1866C28.7556 15.1678 28.764 15.1491 28.7678 15.1294C28.7847 15.0446 28.7847 14.9573 28.7678 14.8725C28.764 14.8528 28.7556 14.8341 28.75 14.8144C28.7425 14.7947 28.7378 14.7713 28.7293 14.7516C28.7199 14.729 28.709 14.707 28.6965 14.6859L28.6712 14.6381C28.6474 14.6016 28.6194 14.5679 28.5878 14.5378L25.9628 11.9138C25.902 11.8529 25.8298 11.8047 25.7503 11.7718C25.6708 11.7389 25.5857 11.7219 25.4997 11.7219C25.4136 11.7219 25.3285 11.7389 25.249 11.7718C25.1695 11.8047 25.0973 11.8529 25.0365 11.9138C24.9757 11.9746 24.9275 12.0468 24.8946 12.1262C24.8616 12.2057 24.8447 12.2909 24.8447 12.3769C24.8447 12.4629 24.8616 12.5481 24.8946 12.6275C24.9275 12.707 24.9757 12.7792 25.0365 12.84L26.5403 14.3447H1.87559C1.70596 14.3511 1.54541 14.423 1.42767 14.5453C1.30992 14.6676 1.24414 14.8307 1.24414 15.0005C1.24414 15.1702 1.30992 15.3334 1.42767 15.4557C1.54541 15.5779 1.70596 15.6498 1.87559 15.6563H26.5422L25.0384 17.1609C24.9263 17.286 24.8665 17.4492 24.8711 17.617C24.8757 17.7849 24.9445 17.9446 25.0633 18.0632C25.1821 18.1819 25.3418 18.2505 25.5097 18.255C25.6775 18.2594 25.8407 18.1994 25.9656 18.0872L28.5897 15.4631C28.6199 15.433 28.6472 15.4 28.6712 15.3647Z" fill="#FFDE2F"/>
</g>
</svg>
