<svg width="24" height="24" viewBox="0 0 24 24" fill="none" xmlns="http://www.w3.org/2000/svg">
<g id="mingcute:down-line" clip-path="url(#clip0_1184_2582)">
<g id="Group">
<path id="Vector" fill-rule="evenodd" clip-rule="evenodd" d="M12.7044 15.707C12.5169 15.8944 12.2626 15.9998 11.9974 15.9998C11.7322 15.9998 11.4779 15.8944 11.2904 15.707L5.63341 10.05C5.5379 9.95773 5.46172 9.84739 5.40931 9.72538C5.3569 9.60338 5.32932 9.47216 5.32816 9.33938C5.32701 9.2066 5.35231 9.07492 5.40259 8.95202C5.45287 8.82913 5.52713 8.71747 5.62102 8.62358C5.71491 8.52969 5.82656 8.45544 5.94946 8.40515C6.07236 8.35487 6.20404 8.32957 6.33681 8.33073C6.46959 8.33188 6.60081 8.35947 6.72282 8.41188C6.84482 8.46428 6.95517 8.54047 7.04741 8.63598L11.9974 13.586L16.9474 8.63598C17.136 8.45382 17.3886 8.35302 17.6508 8.3553C17.913 8.35758 18.1638 8.46275 18.3492 8.64816C18.5346 8.83357 18.6398 9.08438 18.6421 9.34658C18.6444 9.60877 18.5436 9.86137 18.3614 10.05L12.7044 15.707Z" fill="black"/>
</g>
</g>
<defs>
<clipPath id="clip0_1184_2582">
<rect width="24" height="24" fill="white"/>
</clipPath>
</defs>
</svg>
