<svg width="24" height="24" viewBox="0 0 24 24" fill="none" xmlns="http://www.w3.org/2000/svg">
<path d="M13.0286 2.00904C13.7583 2.00624 14.488 2.01358 15.2176 2.03104L15.4116 2.03804C15.6356 2.04604 15.8566 2.05604 16.1236 2.06804C17.1876 2.11804 17.9136 2.28604 18.5506 2.53304C19.2106 2.78704 19.7666 3.13104 20.3226 3.68704C20.831 4.18665 21.2244 4.79099 21.4756 5.45804C21.7226 6.09504 21.8906 6.82204 21.9406 7.88604C21.9526 8.15204 21.9626 8.37404 21.9706 8.59804L21.9766 8.79204C21.9943 9.52124 22.002 10.2506 21.9996 10.98L22.0006 11.726V13.036C22.003 13.7658 21.9954 14.4955 21.9776 15.225L21.9716 15.419C21.9636 15.643 21.9536 15.864 21.9416 16.131C21.8916 17.195 21.7216 17.921 21.4756 18.558C21.2252 19.2258 20.8317 19.8306 20.3226 20.33C19.8225 20.8384 19.2179 21.2318 18.5506 21.483C17.9136 21.73 17.1876 21.898 16.1236 21.948C15.8566 21.96 15.6356 21.97 15.4116 21.978L15.2176 21.984C14.4881 22.0018 13.7583 22.0095 13.0286 22.007L12.2826 22.008H10.9736C10.2438 22.0105 9.5141 22.0028 8.78458 21.985L8.59058 21.979C8.35319 21.9704 8.11585 21.9604 7.87858 21.949C6.81458 21.899 6.08858 21.729 5.45058 21.483C4.78326 21.2324 4.17881 20.8389 3.67958 20.33C3.17062 19.8303 2.7768 19.2256 2.52558 18.558C2.27858 17.921 2.11058 17.195 2.06058 16.131C2.04944 15.8938 2.03944 15.6564 2.03058 15.419L2.02558 15.225C2.00714 14.4955 1.99881 13.7658 2.00058 13.036V10.98C1.99779 10.2506 2.00512 9.52124 2.02258 8.79204L2.02958 8.59804C2.03758 8.37404 2.04758 8.15204 2.05958 7.88604C2.10958 6.82104 2.27758 6.09604 2.52458 5.45804C2.77595 4.79066 3.17054 4.18649 3.68058 3.68804C4.17947 3.17879 4.78354 2.78462 5.45058 2.53304C6.08858 2.28604 6.81358 2.11804 7.87858 2.06804L8.59058 2.03804L8.78458 2.03304C9.51376 2.01462 10.2432 2.00628 10.9726 2.00804L13.0286 2.00904ZM12.0006 7.00904C11.3381 6.99967 10.6803 7.12207 10.0656 7.36911C9.45077 7.61615 8.89122 7.98292 8.41942 8.4481C7.94762 8.91327 7.57298 9.46758 7.31726 10.0788C7.06155 10.69 6.92987 11.346 6.92987 12.0085C6.92987 12.6711 7.06155 13.3271 7.31726 13.9383C7.57298 14.5495 7.94762 15.1038 8.41942 15.569C8.89122 16.0342 9.45077 16.4009 10.0656 16.648C10.6803 16.895 11.3381 17.0174 12.0006 17.008C13.3267 17.008 14.5984 16.4813 15.5361 15.5436C16.4738 14.6059 17.0006 13.3341 17.0006 12.008C17.0006 10.682 16.4738 9.41019 15.5361 8.47251C14.5984 7.53483 13.3267 7.00904 12.0006 7.00904ZM12.0006 9.00904C12.3991 9.0017 12.7951 9.07384 13.1654 9.22125C13.5357 9.36866 13.8729 9.58838 14.1574 9.86759C14.4418 10.1468 14.6678 10.4799 14.822 10.8474C14.9763 11.2149 15.0558 11.6095 15.0558 12.008C15.0559 12.4066 14.9766 12.8012 14.8224 13.1688C14.6683 13.5363 14.4424 13.8695 14.1581 14.1488C13.8737 14.4281 13.5366 14.6479 13.1663 14.7954C12.796 14.943 12.4001 15.0153 12.0016 15.008C11.2059 15.008 10.4429 14.692 9.88026 14.1294C9.31765 13.5668 9.00158 12.8037 9.00158 12.008C9.00158 11.2124 9.31765 10.4493 9.88026 9.88672C10.4429 9.32411 11.2059 9.00804 12.0016 9.00804L12.0006 9.00904ZM17.2506 5.50904C16.928 5.52196 16.6229 5.65919 16.3992 5.89201C16.1755 6.12484 16.0506 6.43518 16.0506 6.75804C16.0506 7.08091 16.1755 7.39125 16.3992 7.62407C16.6229 7.85689 16.928 7.99413 17.2506 8.00704C17.5821 8.00704 17.9 7.87535 18.1345 7.64093C18.3689 7.40651 18.5006 7.08856 18.5006 6.75704C18.5006 6.42552 18.3689 6.10758 18.1345 5.87316C17.9 5.63874 17.5821 5.50704 17.2506 5.50704V5.50904Z" fill="#359CD6"/>
</svg>
