<svg width="96" height="112" viewBox="0 0 96 112" fill="none" xmlns="http://www.w3.org/2000/svg">
<g id="Group 1000001230">
<path id="Vector" d="M23.6044 101.217L15.9528 111.973H14.3977L6.74609 101.217H10.2329L15.1819 108.107L20.1131 101.217H23.6044ZM38.5796 101.217V104.008H29.816C29.0274 104.008 28.3982 104.245 27.9197 104.71C27.4457 105.18 27.2108 105.807 27.2108 106.593C27.2108 107.37 27.4457 107.988 27.9197 108.454C28.3982 108.914 29.0274 109.147 29.816 109.147H38.5796V111.951H29.816C28.252 111.951 26.9539 111.442 25.9215 110.428C24.8937 109.415 24.3797 108.138 24.3797 106.593C24.3797 105.035 24.8937 103.749 25.9215 102.735C26.9539 101.721 28.252 101.217 29.816 101.217H38.5796ZM52.558 105.267C52.558 104.842 52.2169 104.517 51.539 104.28C51.0251 104.118 50.5111 104.034 49.9795 104.034H43.3513V106.518H49.9529C50.5023 106.518 51.0251 106.43 51.539 106.259C52.2169 106.031 52.558 105.702 52.558 105.267ZM55.3803 105.267C55.3803 106.825 54.5917 107.966 53.0233 108.69L54.6537 111.999H51.4859L50.1655 109.327H43.3513V111.973H40.5202V101.217H49.9795C51.3707 101.217 52.5802 101.542 53.6081 102.182C54.7866 102.92 55.3803 103.951 55.3803 105.267ZM71.7955 108.568C71.7955 109.537 71.4721 110.341 70.8208 110.986C70.1695 111.626 69.3587 111.951 68.3929 111.951H57.6842V109.147H68.3707C68.7695 109.147 68.9777 108.958 68.9777 108.568C68.9777 108.186 68.7695 107.993 68.3707 107.993H60.3514C59.39 107.993 58.5836 107.672 57.9234 107.027C57.2677 106.382 56.9399 105.57 56.9399 104.587C56.9399 103.617 57.2677 102.814 57.9234 102.178C58.5836 101.537 59.39 101.217 60.3514 101.217H71.0689V104.008H60.378C59.9748 104.008 59.7666 104.201 59.7666 104.587C59.7666 104.995 59.9748 105.197 60.378 105.197H68.3929C69.3587 105.197 70.1695 105.522 70.8208 106.163C71.4721 106.803 71.7955 107.607 71.7955 108.568ZM88.6095 104.008H79.1857C78.4148 104.008 77.7945 104.236 77.316 104.688C76.8419 105.136 76.5938 105.746 76.5761 106.496H85.9511V109.327H76.5761V111.951H73.745V106.593C73.745 105.035 74.2589 103.749 75.2824 102.735C76.3058 101.721 77.604 101.217 79.1857 101.217H88.6095V104.008Z" fill="#3871C1"/>
<path id="Vector_2" d="M62.8713 92.9188C47.6966 82.2941 37.7899 64.7838 37.7899 44.9827C37.7899 38.1717 38.9684 31.6328 41.1261 25.5503C41.1128 25.5459 41.1039 25.5327 41.0906 25.5283C32.3226 37.057 27.1211 51.4032 27.1211 66.9474C27.1211 76.137 28.9421 84.9053 32.2384 92.9188H62.8713Z" fill="#F0CE24"/>
<path id="Vector_3" d="M93.9848 92.9186C70.649 88.2361 51.7616 71.4148 44.3359 49.3975C44.46 51.8507 44.7081 54.3214 45.1157 56.7965C47.4462 71.0856 54.2382 83.5272 63.8082 92.9186H93.9848Z" fill="#8AD495"/>
<path id="Vector_4" d="M31.7877 92.9186C26.3116 82.0702 23.2235 69.8349 23.2235 56.8799C23.2235 34.687 32.2662 14.5919 46.9003 0C18.9967 18.3573 0.605469 49.7705 0.605469 85.4362C0.605469 87.9508 0.702941 90.4523 0.884594 92.9186H31.7877Z" fill="#539DDB"/>
<path id="Vector_5" d="M94.8911 99.6646H0.604445C0.4095 99.6646 0.25 99.5066 0.25 99.3135C0.25 99.116 0.4095 98.958 0.604445 98.958H94.8911C95.0905 98.958 95.25 99.116 95.25 99.3135C95.25 99.5066 95.0905 99.6646 94.8911 99.6646Z" fill="#50ADE5"/>
</g>
</svg>
