<svg width="41" height="50" viewBox="0 0 41 50" fill="none" xmlns="http://www.w3.org/2000/svg">
<g id="Group 1000001194">
<path id="Vector" d="M10.1052 45.1863L6.87678 49.9882H6.22063L2.99219 45.1863H4.4634L6.55151 48.2622L8.63214 45.1863H10.1052ZM16.4238 45.1863V46.4323H12.7261C12.3934 46.4323 12.1279 46.5381 11.926 46.7458C11.726 46.9554 11.6269 47.2356 11.6269 47.5863C11.6269 47.933 11.726 48.2093 11.926 48.4169C12.1279 48.6227 12.3934 48.7265 12.7261 48.7265H16.4238V49.9784H12.7261C12.0662 49.9784 11.5185 49.7511 11.0829 49.2986C10.6492 48.846 10.4324 48.2759 10.4324 47.5863C10.4324 46.8908 10.6492 46.3167 11.0829 45.8642C11.5185 45.4116 12.0662 45.1863 12.7261 45.1863H16.4238ZM22.3217 46.9946C22.3217 46.8046 22.1778 46.6596 21.8917 46.5538C21.6749 46.4813 21.458 46.4441 21.2337 46.4441H18.4371V47.553H21.2225C21.4543 47.553 21.6749 47.5138 21.8917 47.4374C22.1778 47.3355 22.3217 47.1886 22.3217 46.9946ZM23.5125 46.9946C23.5125 47.6901 23.1798 48.1995 22.518 48.5227L23.2059 50H21.8693L21.3122 48.8068H18.4371V49.9882H17.2426V45.1863H21.2337C21.8207 45.1863 22.3311 45.3313 22.7647 45.6173C23.262 45.9464 23.5125 46.4068 23.5125 46.9946ZM30.4386 48.4679C30.4386 48.9009 30.3021 49.2594 30.0273 49.5474C29.7525 49.8334 29.4104 49.9784 29.0029 49.9784H24.4846V48.7265H28.9936C29.1618 48.7265 29.2497 48.6423 29.2497 48.4679C29.2497 48.2974 29.1618 48.2112 28.9936 48.2112H25.61C25.2043 48.2112 24.8641 48.0682 24.5855 47.7802C24.3089 47.4922 24.1705 47.1298 24.1705 46.6909C24.1705 46.2579 24.3089 45.8994 24.5855 45.6153C24.8641 45.3293 25.2043 45.1863 25.61 45.1863H30.132V46.4323H25.6212C25.4511 46.4323 25.3632 46.5185 25.3632 46.6909C25.3632 46.8731 25.4511 46.9632 25.6212 46.9632H29.0029C29.4104 46.9632 29.7525 47.1082 30.0273 47.3943C30.3021 47.6803 30.4386 48.0388 30.4386 48.4679ZM37.5329 46.4323H33.5568C33.2315 46.4323 32.9698 46.5342 32.7679 46.736C32.5678 46.9358 32.4632 47.2081 32.4557 47.5432H36.4113V48.8068H32.4557V49.9784H31.2611V47.5863C31.2611 46.8908 31.478 46.3167 31.9098 45.8642C32.3416 45.4116 32.8894 45.1863 33.5568 45.1863H37.5329V46.4323Z" fill="#F9F7F0"/>
<path id="Vector_2" d="M26.674 41.4815C20.2713 36.7383 16.0913 28.9213 16.0913 20.0815C16.0913 17.0409 16.5886 14.1217 17.499 11.4063C17.4934 11.4043 17.4896 11.3984 17.484 11.3965C13.7845 16.5432 11.5898 22.9477 11.5898 29.8871C11.5898 33.9896 12.3582 37.904 13.749 41.4815H26.674Z" fill="#F0CE24"/>
<path id="Vector_3" d="M39.8 41.4814C29.9539 39.391 21.9847 31.8815 18.8516 22.0524C18.9039 23.1475 19.0086 24.2506 19.1806 25.3555C20.1639 31.7346 23.0297 37.2888 27.0675 41.4814H39.8Z" fill="#8AD495"/>
<path id="Vector_4" d="M13.5552 41.4815C11.2447 36.6384 9.94168 31.1763 9.94168 25.3928C9.94168 15.4853 13.7571 6.51424 19.9317 0C8.15828 8.1952 0.398438 22.2189 0.398438 38.1411C0.398438 39.2637 0.439564 40.3804 0.516209 41.4815H13.5552Z" fill="#539DDB"/>
<path id="Vector_5" d="M40.1821 44.4928H0.399551C0.317298 44.4928 0.25 44.4223 0.25 44.3361C0.25 44.2479 0.317298 44.1774 0.399551 44.1774H40.1821C40.2662 44.1774 40.3335 44.2479 40.3335 44.3361C40.3335 44.4223 40.2662 44.4928 40.1821 44.4928Z" fill="#F9F7F0"/>
</g>
</svg>
