<svg width="20" height="14" viewBox="0 0 20 14" fill="none" xmlns="http://www.w3.org/2000/svg">
<path d="M8 10.0078L13.19 7.00781L8 4.00781V10.0078ZM19.56 2.17781C19.69 2.64781 19.78 3.27781 19.84 4.07781C19.91 4.87781 19.94 5.56781 19.94 6.16781L20 7.00781C20 9.19781 19.84 10.8078 19.56 11.8378C19.31 12.7378 18.73 13.3178 17.83 13.5678C17.36 13.6978 16.5 13.7878 15.18 13.8478C13.88 13.9178 12.69 13.9478 11.59 13.9478L10 14.0078C5.81 14.0078 3.2 13.8478 2.17 13.5678C1.27 13.3178 0.69 12.7378 0.44 11.8378C0.31 11.3678 0.22 10.7378 0.16 9.93781C0.0900001 9.13781 0.0599999 8.44781 0.0599999 7.84781L0 7.00781C0 4.81781 0.16 3.20781 0.44 2.17781C0.69 1.27781 1.27 0.697813 2.17 0.447813C2.64 0.317813 3.5 0.227812 4.82 0.167812C6.12 0.0978123 7.31 0.0678124 8.41 0.0678124L10 0.0078125C14.19 0.0078125 16.8 0.167813 17.83 0.447813C18.73 0.697813 19.31 1.27781 19.56 2.17781Z" fill="#359CD6"/>
</svg>
