<svg width="156" height="156" viewBox="0 0 156 156" fill="none" xmlns="http://www.w3.org/2000/svg">
<g id="ri:double-quotes-l">
<path id="Vector" d="M29.7895 112.587C23.0945 105.476 19.5 97.5001 19.5 84.5716C19.5 61.8216 35.4705 41.4311 58.695 31.3496L64.4995 40.3066C42.822 52.0326 38.584 67.2491 36.894 76.8431C40.3845 75.0361 44.954 74.4056 49.4325 74.8216C61.1585 75.9071 70.4015 85.5336 70.4015 97.5001C70.4015 103.534 68.0046 109.32 63.7382 113.587C59.4717 117.853 53.6852 120.25 47.6515 120.25C44.3148 120.221 41.0172 119.528 37.9506 118.213C34.8841 116.897 32.1099 114.985 29.7895 112.587ZM94.7895 112.587C88.0945 105.476 84.5 97.5001 84.5 84.5716C84.5 61.8216 100.471 41.4311 123.695 31.3496L129.5 40.3066C107.822 52.0326 103.584 67.2491 101.894 76.8431C105.384 75.0361 109.954 74.4056 114.432 74.8216C126.158 75.9071 135.401 85.5336 135.401 97.5001C135.401 103.534 133.005 109.32 128.738 113.587C124.472 117.853 118.685 120.25 112.651 120.25C109.315 120.221 106.017 119.528 102.951 118.213C99.8841 116.897 97.1099 114.985 94.7895 112.587Z" fill="#F9F7F0"/>
</g>
</svg>
